<?xml version="1.0" encoding="UTF-8"?>
<svg width="700pt" height="700pt" version="1.1" viewBox="0 0 680 580" xmlns="http://www.w3.org/2000/svg" xmlns:xlink="http://www.w3.org/1999/xlink">
 <defs>
  <symbol id="v" overflow="visible">
   <path d="m18.766-1.125c-0.96875 0.5-1.9805 0.875-3.0312 1.125-1.043 0.25781-2.1367 0.39062-3.2812 0.39062-3.3984 0-6.0898-0.94531-8.0781-2.8438-1.9922-1.9062-2.9844-4.4844-2.9844-7.7344 0-3.2578 0.99219-5.8359 2.9844-7.7344 1.9883-1.9062 4.6797-2.8594 8.0781-2.8594 1.1445 0 2.2383 0.13281 3.2812 0.39062 1.0508 0.25 2.0625 0.625 3.0312 1.125v4.2188c-0.98047-0.65625-1.9453-1.1406-2.8906-1.4531-0.94922-0.3125-1.9492-0.46875-3-0.46875-1.875 0-3.3516 0.60547-4.4219 1.8125-1.0742 1.1992-1.6094 2.8555-1.6094 4.9688 0 2.1055 0.53516 3.7617 1.6094 4.9688 1.0703 1.1992 2.5469 1.7969 4.4219 1.7969 1.0508 0 2.0508-0.14844 3-0.45312 0.94531-0.3125 1.9102-0.80078 2.8906-1.4688z"/>
  </symbol>
 </defs>
 <g>
  <path d="m342.48 54.25-133.18 43.398-82.426 113.23v140.18l82.426 113.22 133.18 43.402 133.17-43.402 82.426-113.22v-140.18l-82.426-113.23zm-0.875 12.949 119 38.852-45.5 63.176h-147.18l-45.5-63.176zm130.55 46.902 73.5 101.5-0.875 125.3-74.023-24.148-44.801-140.18zm-258.12 1.3984 45.5 63c-15.453 46.539-30.918 93.109-46.375 139.65l-74.199 23.277 0.52734-125.3zm57.227 66.852h142.45l44.102 135.45-115.32 83.824-115.33-83.824zm196.35 146.47c24.633 8.0781 49.215 16.07 73.848 24.152l-73.324 101.67c-39.723 12.832-79.453 25.672-119.18 38.5l-0.34766-77.875c39.652-28.852 79.344-57.598 119-86.449zm-250.43 0.35156 118.65 86.801-0.52344 77.875c-39.707-12.984-79.469-26.043-119.18-39.027-24.316-33.926-48.656-67.746-72.977-101.68z"/>
 </g>
</svg>
