<?xml version="1.0" encoding="UTF-8"?>
<svg width="700pt" height="700pt" version="1.1" viewBox="0 0 700 600" xmlns="http://www.w3.org/2000/svg" xmlns:xlink="http://www.w3.org/1999/xlink">
 <g>
  <path d="m584.64 418.32c0.55859-0.55859 0.55859-1.1211 0.55859-1.1211v-0.55859-0.55859-0.55859-1.1211-0.55859-1.1211-260.4-0.55859-0.55859-0.55859-0.55859-0.55859-0.55859-0.55859c0-0.55859-0.55859-0.55859-0.55859-1.1211v-0.55859c0-0.55859-0.55859-0.55859-0.55859-0.55859v-0.55859l-0.55859-0.55859s-0.55859-0.55859-1.1211-0.55859h-0.55859l-226.8-131.62c-3.3594-1.6797-7.2812-1.6797-10.078 0l-225.68 130.48c-0.55859 0-0.55859 0.55859-1.1211 0.55859h-0.55859l-1.6758 1.6758s0 0.55859-0.55859 0.55859l-0.55859 0.55859v0.55859s0 0.55859-0.55859 0.55859v0.55859 0.55859 0.55859 0.55859 0.55859 0.55859 0.55859 260.4 1.6797 0.55859c0 0.55859 0.55859 1.1211 0.55859 1.6797 0 0.55859 0.55859 1.1211 1.1211 1.6797v0.55859c-0.007813 1.1484 0.55078 1.707 1.1094 1.707l1.1211 1.1211h0.55859 0.55859l225.68 130.48s0.55859 0 0.55859 0.55859h0.55859 0.55859 0.55859 0.55859 0.55859 1.1211 1.1211 0.55859 1.1211 0.55859 0.55859 0.55859s0.55859 0 0.55859-0.55859l225.68-130.48h0.55859 0.55859s0.55859 0 0.55859-0.55859l0.55859-0.55859s0.55859 0 0.55859-0.55859l0.55859-0.55859s0-0.55859 0.55859-0.55859c0.023437 0.55078 0.023437-0.007813 0.58594-0.007813zm-448-207.76 62.719 155.68c0.55859 1.6797 0 3.9219-2.2383 5.0391l-57.68 24.078c-2.2383 1.1211-5.0391-0.55859-5.0391-3.3594l-0.003906-180.88c0-1.1211 1.6797-1.6797 2.2422-0.5625zm324.8 154.56h-222.88c-2.8008 0-4.4805-3.3594-3.3594-5.6016l111.44-193.2c1.6797-2.2383 5.0391-2.2383 6.1602 0l111.44 193.2c1.6797 2.8008-0.003907 5.6016-2.8008 5.6016zm-248.08-20.16-72.238-178.64c-1.1211-2.2383 0.55859-5.0391 3.3594-5.0391l180.32-8.9609c2.8008 0 5.0391 2.8008 3.3594 5.6016l-108.64 187.6c-1.1211 2.8008-5.0391 2.8008-6.1602-0.55859zm245.84 47.039-106.4 131.04c-1.6797 1.6797-4.4805 1.6797-5.6016 0l-106.4-131.04c-1.6797-2.2383 0-6.1602 2.8008-6.1602h212.8c2.7969 0 4.4766 3.9219 2.7969 6.1602zm21.281-46.48-108.64-187.6c-1.6797-2.8008 0.55859-5.6016 3.3594-5.6016l180.32 8.9609c2.8008 0 3.9219 2.8008 3.3594 5.0391l-72.238 178.64c-1.1211 3.3594-5.0391 3.3594-6.1602 0.55859zm-120.4-217.84v-81.758c0-2.8008 3.3594-4.4805 5.6016-3.3594l163.52 94.637c1.1211 0.55859 0.55859 2.2383-0.55859 2.2383l-165.2-8.3984c-1.6797 0-3.3633-1.6797-3.3633-3.3594zm-24.078 3.3594-165.2 8.3984c-1.1211 0-1.6797-1.6797-0.55859-2.2383l164.08-94.078c2.2383-1.6797 5.6016 0.55859 5.6016 3.3594v81.199c0 1.6797-1.6836 3.3594-3.9219 3.3594zm-123.2 259.28 90.16 111.44c0.55859 1.1211-0.55859 2.2383-1.6797 1.6797l-147.28-85.121c-2.8008-1.6797-2.2383-5.6016 0.55859-6.7188l54.32-22.398c1.1211-0.5625 2.8008-0.003906 3.9219 1.1172zm278.32-1.1211 54.32 22.398c2.8008 1.1211 3.3594 5.0391 0.55859 6.7188l-147.84 85.125c-1.1211 0.55859-2.2383-0.55859-1.6797-1.6797l90.16-111.44c1.6797-1.1211 3.3594-1.6797 4.4805-1.1211zm69.438 6.1602-57.68-24.078c-1.6797-0.55859-2.8008-2.8008-2.2383-5.0391l62.719-155.68c0.55859-1.1211 2.2383-0.55859 2.2383 0.55859l0.003906 180.88c0 2.8008-2.8008 4.4805-5.043 3.3594z"/>
 </g>
</svg>
