<?xml version="1.0" encoding="UTF-8"?>
<svg width="700pt" height="700pt" version="1.1" viewBox="0 0 700 550" xmlns="http://www.w3.org/2000/svg" xmlns:xlink="http://www.w3.org/1999/xlink">
 <defs>
  <symbol id="w" overflow="visible">
   <path d="m19.188-1.1406c-0.99219 0.51172-2.0234 0.89844-3.0938 1.1562-1.0742 0.25781-2.1953 0.39062-3.3594 0.39062-3.4688 0-6.2266-0.96875-8.2656-2.9062-2.0312-1.9453-3.0469-4.5859-3.0469-7.9219 0-3.332 1.0156-5.9688 3.0469-7.9062 2.0391-1.9453 4.7969-2.9219 8.2656-2.9219 1.1641 0 2.2852 0.13281 3.3594 0.39062 1.0703 0.26172 2.1016 0.64844 3.0938 1.1562v4.3125c-1-0.67578-1.9844-1.1719-2.9531-1.4844-0.96875-0.32031-1.9922-0.48438-3.0625-0.48438-1.918 0-3.4297 0.62109-4.5312 1.8594-1.0938 1.2305-1.6406 2.9219-1.6406 5.0781s0.54688 3.8516 1.6406 5.0781c1.1016 1.2305 2.6133 1.8438 4.5312 1.8438 1.0703 0 2.0938-0.15625 3.0625-0.46875 0.96875-0.32031 1.9531-0.82031 2.9531-1.5z"/>
  </symbol>
 </defs>
 <g>
  <path d="m526.38 174.71-160.68-97.098c-5.2695-3.1523-11.801-3.3242-17.184-0.34375l-164.4 90.566c-5.3828 2.9805-8.7656 8.5938-8.8789 14.723l-3.7227 187.72c-0.11328 6.1289 3.0352 11.859 8.3047 15.066l160.68 97.094c2.75 1.6602 5.7852 2.4648 8.8789 2.4648 2.8633 0 5.7266-0.6875 8.3047-2.1211l164.4-90.621c5.3828-2.9805 8.7656-8.5938 8.8789-14.723l3.7227-187.72c0.11719-6.1289-3.0352-11.859-8.3047-15.008zm-28.469 136.33-98.301-172.82 100.48 60.719zm-13.805 45.312-258.98-2.5781 129.29-225.52zm-175-218.14-102.14 178.15 2.4648-123.21zm40.613 309.62-98.355-59.402 202.55 2.0039z"/>
 </g>
</svg>
