<?xml version="1.0" encoding="UTF-8"?>
<svg width="700pt" height="700pt" version="1.1" viewBox="0 0 700 490" xmlns="http://www.w3.org/2000/svg" xmlns:xlink="http://www.w3.org/1999/xlink">
 <defs>
  <symbol id="w" overflow="visible">
   <path d="m19.188-1.1406c-0.99219 0.51172-2.0234 0.89844-3.0938 1.1562-1.0742 0.25781-2.1953 0.39062-3.3594 0.39062-3.4688 0-6.2266-0.96875-8.2656-2.9062-2.0312-1.9453-3.0469-4.5859-3.0469-7.9219 0-3.332 1.0156-5.9688 3.0469-7.9062 2.0391-1.9453 4.7969-2.9219 8.2656-2.9219 1.1641 0 2.2852 0.13281 3.3594 0.39062 1.0703 0.26172 2.1016 0.64844 3.0938 1.1562v4.3125c-1-0.67578-1.9844-1.1719-2.9531-1.4844-0.96875-0.32031-1.9922-0.48438-3.0625-0.48438-1.918 0-3.4297 0.62109-4.5312 1.8594-1.0938 1.2305-1.6406 2.9219-1.6406 5.0781s0.54688 3.8516 1.6406 5.0781c1.1016 1.2305 2.6133 1.8438 4.5312 1.8438 1.0703 0 2.0938-0.15625 3.0625-0.46875 0.96875-0.32031 1.9531-0.82031 2.9531-1.5z"/>
  </symbol>
 </defs>
 <g>
  <path d="m363.46 59.172c-6.3594-5.2695-15.637-5.2695-21.996 0l-209.31 174.66c-3.8945 3.2656-6.1875 8.0781-6.1875 13.176v62.727c0 5.0391 2.2344 9.8516 6.0703 13.117l209.32 177.86c3.207 2.75 7.1602 4.0664 11.113 4.0664s7.9062-1.375 11.113-4.0664l210.52-177.86c3.8398-3.2656 6.0703-8.0781 6.0703-13.117v-62.668c0-5.0977-2.293-9.9688-6.1875-13.23zm182.33 228.79-88.504-22.512-59.113-132.84 147.68 122.53zm-193.27 20.164-70.227-36.031 70.227-157.53 70.23 157.53zm-94.574-9.8516 77.391 39.695v112.5l-155.7-132.27zm111.76 39.695 77.391-39.695 79.051 20.164-156.44 132.15zm-63.012-204.96-59 132.38-87.359 22.281v-32.535z"/>
 </g>
</svg>
