<?xml version="1.0" encoding="UTF-8"?>
<svg width="700pt" height="700pt" version="1.1" viewBox="0 0 600 600" xmlns="http://www.w3.org/2000/svg" xmlns:xlink="http://www.w3.org/1999/xlink">
 <defs>
  <symbol id="w" overflow="visible">
   <path d="m19.188-1.1406c-0.99219 0.51172-2.0234 0.89844-3.0938 1.1562-1.0742 0.25781-2.1953 0.39062-3.3594 0.39062-3.4688 0-6.2266-0.96875-8.2656-2.9062-2.0312-1.9453-3.0469-4.5859-3.0469-7.9219 0-3.332 1.0156-5.9688 3.0469-7.9062 2.0391-1.9453 4.7969-2.9219 8.2656-2.9219 1.1641 0 2.2852 0.13281 3.3594 0.39062 1.0703 0.26172 2.1016 0.64844 3.0938 1.1562v4.3125c-1-0.67578-1.9844-1.1719-2.9531-1.4844-0.96875-0.32031-1.9922-0.48438-3.0625-0.48438-1.918 0-3.4297 0.62109-4.5312 1.8594-1.0938 1.2305-1.6406 2.9219-1.6406 5.0781s0.54688 3.8516 1.6406 5.0781c1.1016 1.2305 2.6133 1.8438 4.5312 1.8438 1.0703 0 2.0938-0.15625 3.0625-0.46875 0.96875-0.32031 1.9531-0.82031 2.9531-1.5z"/>
  </symbol>
 </defs>
 <g>
  <path d="m366.67 61.922c-3.2656-4.2383-8.3047-6.7031-13.633-6.7031s-10.367 2.4648-13.633 6.7031l-216.41 280.46c-2.9805 3.8398-4.1836 8.7656-3.3242 13.574 0.85938 4.7539 3.7227 8.9922 7.8477 11.516l216.47 134.73c2.8086 1.7188 5.957 2.5781 9.1094 2.5781s6.3008-0.85938 9.1094-2.5781l216.47-134.73c4.125-2.5781 6.9883-6.7578 7.8477-11.516 0.85937-4.7539-0.34375-9.6797-3.3242-13.574zm-30.758 60.895v333.9l-174.09-108.38zm34.367 333.84v-333.84l174.08 225.52z"/>
 </g>
</svg>
