<?xml version="1.0" encoding="UTF-8"?>
<svg width="700pt" height="700pt" version="1.1" viewBox="0 0 700 350" xmlns="http://www.w3.org/2000/svg" xmlns:xlink="http://www.w3.org/1999/xlink">
 <defs>
  <symbol id="w" overflow="visible">
   <path d="m19.188-1.1406c-0.99219 0.51172-2.0234 0.89844-3.0938 1.1562-1.0742 0.25781-2.1953 0.39062-3.3594 0.39062-3.4688 0-6.2266-0.96875-8.2656-2.9062-2.0312-1.9453-3.0469-4.5859-3.0469-7.9219 0-3.332 1.0156-5.9688 3.0469-7.9062 2.0391-1.9453 4.7969-2.9219 8.2656-2.9219 1.1641 0 2.2852 0.13281 3.3594 0.39062 1.0703 0.26172 2.1016 0.64844 3.0938 1.1562v4.3125c-1-0.67578-1.9844-1.1719-2.9531-1.4844-0.96875-0.32031-1.9922-0.48438-3.0625-0.48438-1.918 0-3.4297 0.62109-4.5312 1.8594-1.0938 1.2305-1.6406 2.9219-1.6406 5.0781s0.54688 3.8516 1.6406 5.0781c1.1016 1.2305 2.6133 1.8438 4.5312 1.8438 1.0703 0 2.0938-0.15625 3.0625-0.46875 0.96875-0.32031 1.9531-0.82031 2.9531-1.5z"/>
  </symbol>
 </defs>
 <g>
  <path d="m542.87 155.12-183.07-77.504c-4.2969-1.832-9.1094-1.832-13.402 0l-183.08 77.504c-6.3008 2.6914-10.426 8.8789-10.484 15.695v0.11328 215.44c0 6.8164 4.0664 13.004 10.312 15.754l183.08 80.195c2.1758 0.97266 4.5234 1.4336 6.875 1.4336 2.3477 0 4.6953-0.45703 6.875-1.4336l183.08-80.195c6.2422-2.75 10.312-8.9375 10.312-15.754l-0.003906-215.44v-0.11328c-0.058594-6.8203-4.125-13.004-10.484-15.699zm-189.78-43.02 139.66 59.117-139.66 61.18-139.66-61.18zm-165.95 85.125 148.77 65.129v177.92l-148.77-65.129zm183.13 243.05v-177.92l148.71-65.133v177.92z"/>
 </g>
</svg>
